<?xml version="1.0" encoding="UTF-8" standalone="no"?>
<svg
   xmlns:dc="http://purl.org/dc/elements/1.1/"
   xmlns:cc="http://creativecommons.org/ns#"
   xmlns:rdf="http://www.w3.org/1999/02/22-rdf-syntax-ns#"
   xmlns:svg="http://www.w3.org/2000/svg"
   xmlns="http://www.w3.org/2000/svg"
   viewBox="0 0 892.10797 800"
   height="800"
   width="892.10797"
   xml:space="preserve"
   id="svg2"
   version="1.1"><metadata
     id="metadata8"><rdf:RDF><cc:Work
         rdf:about=""><dc:format>image/svg+xml</dc:format><dc:type
           rdf:resource="http://purl.org/dc/dcmitype/StillImage" /></cc:Work></rdf:RDF></metadata><defs
     id="defs6"><clipPath
       id="clipPath26"
       clipPathUnits="userSpaceOnUse"><path
         id="path24"
         d="M 0,600 H 669.081 V 0 H 0 Z" /></clipPath><linearGradient
       id="linearGradient64"
       spreadMethod="pad"
       gradientTransform="matrix(0,-386.68832,-386.68832,0,334.54053,593.99823)"
       gradientUnits="userSpaceOnUse"
       y2="0"
       x2="1"
       y1="0"
       x1="0"><stop
         id="stop58"
         offset="0"
         style="stop-opacity:1;stop-color:#6b90d7" /><stop
         id="stop60"
         offset="0.5"
         style="stop-opacity:1;stop-color:#396bca" /><stop
         id="stop62"
         offset="1"
         style="stop-opacity:1;stop-color:#0846bd" /></linearGradient><linearGradient
       id="linearGradient86"
       spreadMethod="pad"
       gradientTransform="matrix(0,326.8418,326.8418,0,334.54053,237.23317)"
       gradientUnits="userSpaceOnUse"
       y2="0"
       x2="1"
       y1="0"
       x1="0"><stop
         id="stop80"
         offset="0"
         style="stop-opacity:1;stop-color:#6b90d7" /><stop
         id="stop82"
         offset="0.5"
         style="stop-opacity:1;stop-color:#396bca" /><stop
         id="stop84"
         offset="1"
         style="stop-opacity:1;stop-color:#0846bd" /></linearGradient><clipPath
       id="clipPath96"
       clipPathUnits="userSpaceOnUse"><path
         id="path94"
         d="M 0,600 H 669.081 V 0 H 0 Z" /></clipPath></defs><g
     transform="matrix(1.3333333,0,0,-1.3333333,0,800)"
     id="g10"><g
       transform="translate(79.3692,7.127)"
       id="g12"><path
         id="path14"
         style="fill:#0846bd;fill-opacity:1;fill-rule:nonzero;stroke:none"
         d="M 0,0 V 42.663 H -40.573 V 0 H -72.45 v 112.702 h 31.877 V 69.874 H 0 v 42.828 H 31.555 L 31.555,0 Z" /></g><g
       transform="translate(177.4072,81.3496)"
       id="g16"><path
         id="path18"
         style="fill:#0846bd;fill-opacity:1;fill-rule:nonzero;stroke:none"
         d="m 0,0 24.317,38.641 h 35.9 V 37.189 L 15.456,-29.145 v -44.917 h -31.877 v 44.917 l -42.824,66.496 v 1.29 h 35.9 z" /></g><g
       id="g20"><g
         clip-path="url(#clipPath26)"
         id="g22"><g
           transform="translate(275.1392,34.1738)"
           id="g28"><path
             id="path30"
             style="fill:#0846bd;fill-opacity:1;fill-rule:nonzero;stroke:none"
             d="m 0,0 h 16.742 c 20.287,0 27.368,15.134 27.368,30.59 0,15.457 -7.889,28.658 -27.368,28.658 L 0,59.248 Z m 16.742,85.816 c 39.766,0 58.931,-24.474 58.931,-55.547 0,-31.074 -18.522,-57.155 -58.931,-57.155 H -31.555 V 85.816 Z" /></g><g
           transform="translate(451.4224,7.2881)"
           id="g32"><path
             id="path34"
             style="fill:#0846bd;fill-opacity:1;fill-rule:nonzero;stroke:none"
             d="M 0,0 H -90.157 V 112.702 H -2.251 V 85.973 H -58.767 V 69.874 H -5.474 V 43.953 H -58.767 V 26.886 l 58.767,0 z" /></g><g
           transform="translate(477.5044,35.1416)"
           id="g36"><path
             id="path38"
             style="fill:#0846bd;fill-opacity:1;fill-rule:nonzero;stroke:none"
             d="M 0,0 C 21.572,0 21.415,-29.14 0,-29.14 -21.095,-29.14 -21.416,0 0,0" /></g><g
           transform="translate(561.2231,88.4346)"
           id="g40"><path
             id="path42"
             style="fill:#0846bd;fill-opacity:1;fill-rule:nonzero;stroke:none"
             d="m 0,0 -14.484,-35.903 h 28.818 z m 25.117,-62.632 h -50.391 l -7.403,-18.514 H -66.491 L -15.935,31.556 H 16.264 L 66.654,-81.146 H 32.527 Z" /></g><path
           id="path44"
           style="fill:#0846bd;fill-opacity:1;fill-rule:nonzero;stroke:none"
           d="m 630.45,119.99 h 31.713 V 7.288 H 630.45 Z" /></g></g><g
       id="g46"><g
         id="g48"><g
           id="g54"><g
             id="g56"><path
               id="path66"
               style="fill:url(#linearGradient64);stroke:none"
               d="m 141.197,400.654 c 0,-106.781 86.562,-193.344 193.344,-193.344 v 0 c 106.781,0 193.343,86.563 193.343,193.344 v 0 c 0,106.781 -86.562,193.344 -193.343,193.344 v 0 c -106.782,0 -193.344,-86.563 -193.344,-193.344" /></g></g></g></g><g
       id="g68"><g
         id="g70"><g
           id="g76"><g
             id="g78"><path
               id="path88"
               style="fill:url(#linearGradient86);stroke:none"
               d="m 171.12,400.654 c 0,-90.255 73.166,-163.42 163.421,-163.42 v 0 c 90.255,0 163.42,73.165 163.42,163.42 v 0 c 0,90.255 -73.165,163.421 -163.42,163.421 v 0 c -90.255,0 -163.421,-73.166 -163.421,-163.421" /></g></g></g></g><g
       id="g90"><g
         clip-path="url(#clipPath96)"
         id="g92"><g
           transform="translate(334.5405,555.6382)"
           id="g98"><path
             id="path100"
             style="fill:#396bca;fill-opacity:1;fill-rule:nonzero;stroke:none"
             d="m 0,0 c 85.596,0 154.984,-69.389 154.984,-154.984 0,-85.596 -69.388,-154.984 -154.984,-154.984 -85.595,0 -154.984,69.388 -154.984,154.984 C -154.984,-69.389 -85.595,0 0,0" /></g><g
           transform="translate(393.981,371.1191)"
           id="g102"><path
             id="path104"
             style="fill:#ffffff;fill-opacity:1;fill-rule:nonzero;stroke:none"
             d="M 0,0 0.004,0.045 C -3.599,47.986 12.808,98.093 12.808,98.093 -13.555,116.497 -59.233,116 -59.233,116 c -44.186,0.248 -72.455,-17.161 -72.455,-17.161 14.175,-45.015 13.181,-90.031 13.181,-90.031 45.5,6.033 75.048,1.076 93.155,-5.303 -10.723,1.016 -22.175,1.573 -34.088,1.573 -59.887,0 -108.435,-13.882 -108.435,-31.005 0,-17.124 48.548,-31.005 108.435,-31.005 59.886,0 108.434,13.881 108.434,31.005 C 48.994,-15.081 29.501,-5.541 0,0" /></g></g></g></g></svg>